<svg xmlns="http://www.w3.org/2000/svg" version="1.1" xmlns:xlink="http://www.w3.org/1999/xlink" xmlns:svgjs="http://svgjs.dev/svgjs" width="1000" height="623" viewBox="0 0 1000 623"><g transform="matrix(1,0,0,1,-0.6060606060606233,0.2522267206477409)"><svg viewBox="0 0 396 247" data-background-color="#ffffff" preserveAspectRatio="xMidYMid meet" height="623" width="1000" xmlns="http://www.w3.org/2000/svg" xmlns:xlink="http://www.w3.org/1999/xlink"><g id="tight-bounds" transform="matrix(1,0,0,1,0.2400000000000091,-0.09999999999999432)"><svg viewBox="0 0 395.52 247.2" height="247.2" width="395.52"><g><svg></svg></g><g><svg viewBox="0 0 395.52 247.2" height="247.2" width="395.52"><g transform="matrix(1,0,0,1,75.54432,53.732851297709914)"><svg viewBox="0 0 244.43135999999998 139.73429740458016" height="139.73429740458016" width="244.43135999999998"><g><svg viewBox="0 0 244.43135999999998 139.73429740458016" height="139.73429740458016" width="244.43135999999998"><g><svg viewBox="0 0 244.43135999999998 139.73429740458016" height="139.73429740458016" width="244.43135999999998"><g><svg viewBox="0 0 244.43135999999998 139.73429740458016" height="139.73429740458016" width="244.43135999999998"><g><svg viewBox="0 0 244.43135999999998 139.73429740458016" height="139.73429740458016" width="244.43135999999998"><g><svg viewBox="0 0 244.43135999999998 139.73429740458016" height="139.73429740458016" width="244.43135999999998"><g transform="matrix(1,0,0,1,0,0)"><svg width="244.43135999999998" viewBox="3.85 -33.7 58.949999999999996 33.7" height="139.73429740458016" data-palette-color="#ff5858"><path d="M28.3-33.7L28.3 0 24.25 0 24.25-15.25 7.9-15.25 7.9 0 3.85 0 3.85-33.7 7.9-33.7 7.9-18.9 24.25-18.9 24.25-33.7 28.3-33.7ZM43.05-14.2L43.05-14.2 42.4-12.3 54.35-12.3 53.7-14.25 48.45-30.45Q47.85-28.3 43.05-14.2ZM41.25-8.85L38.25 0 33.9 0 45.65-33.7 51.25-33.7 62.8 0 58.45 0 55.5-8.85 41.25-8.85Z" opacity="1" transform="matrix(1,0,0,1,0,0)" fill="#ff5858" class="undefined-text-0" data-fill-palette-color="primary" id="text-0"></path></svg></g></svg></g></svg></g></svg></g></svg></g></svg></g></svg></g><path d="M144.264 47.733L144.264 3.391 384.681 3.391 384.681 243.809 144.264 243.809 144.264 199.467 156.865 199.467 156.865 231.207 372.08 231.207 372.08 15.993 156.865 15.993 156.865 47.733Z" fill="#ff5858" stroke="transparent" data-fill-palette-color="primary"></path></svg></g><defs></defs></svg><rect width="395.52" height="247.2" fill="none" stroke="none" visibility="hidden"></rect></g></svg></g></svg>